<svg xmlns="http://www.w3.org/2000/svg" enable-background="new 0 0 47.5 47.5" viewBox="0 0 47.5 47.5" id="a"><defs><clipPath id="a"><path d="M0 38h38V0H0v38Z"></path></clipPath></defs><g clip-path="url(#a)" transform="matrix(1.25 0 0 -1.25 0 47.5)"><path fill="#3b88c3" d="M0 0a4 4 0 0 0-4-4h-28a4 4 0 0 0-4 4v28a4 4 0 0 0 4 4h28a4 4 0 0 0 4-4V0Z" transform="translate(37 5)"></path><path fill="#fff" d="M0 0h5.891L3.008 8.992h-.062L0 0Zm-.341 11.256c.528 1.426 1.737 2.573 3.318 2.573 1.643 0 2.791-1.085 3.317-2.573l6.078-16.867c.185-.496.248-.931.248-1.148 0-1.209-.993-2.046-2.139-2.046-1.303 0-1.954.682-2.264 1.612l-.93 2.915h-8.62l-.93-2.884c-.31-.961-.962-1.643-2.233-1.643-1.24 0-2.294.93-2.294 2.17 0 .496.155.868.217 1.024l6.232 16.867z" transform="translate(16.087 16.62)"></path></g></svg>